<mxfile host="app.diagrams.net" modified="2024-05-04T05:42:31.585Z" agent="Mozilla/5.0 (Windows NT 10.0; Win64; x64) AppleWebKit/537.36 (KHTML, like Gecko) Chrome/124.0.0.0 Safari/537.36" version="24.2.7" etag="CJHhOpzTjBYqVHVts1_t" type="github">
  <diagram name="Page-1" id="L4YfftTaaG7Q97aekQJR">
    <mxGraphModel>
      <root>
        <mxCell id="0" />
        <mxCell id="1" parent="0" />
      </root>
    </mxGraphModel>
  </diagram>
</mxfile>
